<mxfile host="65bd71144e">
    <diagram id="37v83Nntvbdrm7so_rxu" name="Page-1">
        <mxGraphModel dx="1149" dy="612" grid="1" gridSize="10" guides="1" tooltips="1" connect="1" arrows="1" fold="1" page="1" pageScale="1" pageWidth="850" pageHeight="1100" math="1" shadow="0">
            <root>
                <mxCell id="0"/>
                <mxCell id="1" parent="0"/>
                <mxCell id="147" style="edgeStyle=orthogonalEdgeStyle;rounded=1;orthogonalLoop=1;jettySize=auto;html=1;entryX=0.25;entryY=0;entryDx=0;entryDy=0;curved=0;strokeColor=#B3B3B3;" parent="1" source="160" target="156" edge="1">
                    <mxGeometry relative="1" as="geometry">
                        <Array as="points">
                            <mxPoint x="155" y="180"/>
                        </Array>
                    </mxGeometry>
                </mxCell>
                <mxCell id="148" style="edgeStyle=orthogonalEdgeStyle;rounded=1;orthogonalLoop=1;jettySize=auto;html=1;entryX=0.776;entryY=0.034;entryDx=0;entryDy=0;entryPerimeter=0;curved=0;strokeColor=#B3B3B3;" parent="1" source="158" target="156" edge="1">
                    <mxGeometry relative="1" as="geometry">
                        <Array as="points">
                            <mxPoint x="176" y="140"/>
                        </Array>
                    </mxGeometry>
                </mxCell>
                <mxCell id="155" style="edgeStyle=orthogonalEdgeStyle;html=1;entryX=0.5;entryY=1;entryDx=0;entryDy=0;strokeColor=#B3B3B3;" parent="1" source="156" target="166" edge="1">
                    <mxGeometry relative="1" as="geometry"/>
                </mxCell>
                <mxCell id="156" value="Spec" style="rounded=0;whiteSpace=wrap;html=1;strokeColor=#B3B3B3;fillColor=#E6E6E6;" parent="1" vertex="1">
                    <mxGeometry x="145" y="210" width="40" height="20" as="geometry"/>
                </mxCell>
                <mxCell id="157" style="edgeStyle=orthogonalEdgeStyle;html=1;entryX=0;entryY=0.25;entryDx=0;entryDy=0;" parent="1" source="158" target="162" edge="1">
                    <mxGeometry relative="1" as="geometry"/>
                </mxCell>
                <mxCell id="158" value="&amp;nbsp;[w_i-1:0] op0 [k]" style="shape=offPageConnector;whiteSpace=wrap;html=1;rotation=0;direction=north;labelPosition=center;verticalLabelPosition=middle;align=left;verticalAlign=middle;size=0.16666666666666666;" parent="1" vertex="1">
                    <mxGeometry x="35" y="130" width="110" height="20" as="geometry"/>
                </mxCell>
                <mxCell id="159" style="edgeStyle=orthogonalEdgeStyle;html=1;entryX=0;entryY=0.75;entryDx=0;entryDy=0;" parent="1" source="160" target="162" edge="1">
                    <mxGeometry relative="1" as="geometry"/>
                </mxCell>
                <mxCell id="160" value="&amp;nbsp;[w_i-1:0] op1 [k]" style="shape=offPageConnector;whiteSpace=wrap;html=1;rotation=0;direction=north;labelPosition=center;verticalLabelPosition=middle;align=left;verticalAlign=middle;size=0.16666666666666666;" parent="1" vertex="1">
                    <mxGeometry x="35" y="170" width="110" height="20" as="geometry"/>
                </mxCell>
                <mxCell id="161" style="edgeStyle=orthogonalEdgeStyle;html=1;entryX=0;entryY=0.5;entryDx=0;entryDy=0;" parent="1" source="162" target="164" edge="1">
                    <mxGeometry relative="1" as="geometry"/>
                </mxCell>
                <mxCell id="162" value="*" style="rounded=0;whiteSpace=wrap;html=1;" parent="1" vertex="1">
                    <mxGeometry x="190" y="120" width="30" height="80" as="geometry"/>
                </mxCell>
                <mxCell id="163" style="edgeStyle=orthogonalEdgeStyle;html=1;entryX=0.5;entryY=1;entryDx=0;entryDy=0;" parent="1" source="164" target="165" edge="1">
                    <mxGeometry relative="1" as="geometry">
                        <mxPoint x="410" y="170" as="targetPoint"/>
                    </mxGeometry>
                </mxCell>
                <mxCell id="164" value="$$\Sigma$$" style="triangle;whiteSpace=wrap;html=1;" parent="1" vertex="1">
                    <mxGeometry x="260" y="120" width="40" height="80" as="geometry"/>
                </mxCell>
                <mxCell id="165" value="[w_o-1:0] out [1]&amp;nbsp;" style="shape=offPageConnector;whiteSpace=wrap;html=1;rotation=0;direction=south;labelPosition=center;verticalLabelPosition=middle;align=right;verticalAlign=middle;size=0.2;" parent="1" vertex="1">
                    <mxGeometry x="345" y="150" width="115" height="20" as="geometry"/>
                </mxCell>
                <mxCell id="166" value="NaN/Inf?&amp;nbsp;" style="shape=offPageConnector;whiteSpace=wrap;html=1;rotation=0;direction=south;labelPosition=center;verticalLabelPosition=middle;align=right;verticalAlign=middle;size=0.2;strokeColor=#B3B3B3;fillColor=#E6E6E6;" parent="1" vertex="1">
                    <mxGeometry x="342.5" y="210" width="117.5" height="20" as="geometry"/>
                </mxCell>
                <mxCell id="167" value="//" style="text;html=1;align=center;verticalAlign=middle;resizable=0;points=[];autosize=1;strokeColor=none;fillColor=none;" parent="1" vertex="1">
                    <mxGeometry x="220" y="146" width="30" height="30" as="geometry"/>
                </mxCell>
                <mxCell id="168" value="$$w_{int}$$" style="text;html=1;align=center;verticalAlign=middle;resizable=0;points=[];autosize=1;strokeColor=none;fillColor=none;" parent="1" vertex="1">
                    <mxGeometry x="195" y="130" width="90" height="30" as="geometry"/>
                </mxCell>
                <mxCell id="169" value="//" style="text;html=1;align=center;verticalAlign=middle;resizable=0;points=[];autosize=1;strokeColor=none;fillColor=none;" parent="1" vertex="1">
                    <mxGeometry x="300" y="145" width="30" height="30" as="geometry"/>
                </mxCell>
                <mxCell id="170" value="$$w_o$$" style="text;html=1;align=center;verticalAlign=middle;resizable=0;points=[];autosize=1;strokeColor=none;fillColor=none;" parent="1" vertex="1">
                    <mxGeometry x="280" y="130" width="70" height="30" as="geometry"/>
                </mxCell>
                <mxCell id="171" value="//" style="text;html=1;align=center;verticalAlign=middle;resizable=0;points=[];autosize=1;strokeColor=none;fillColor=none;" parent="1" vertex="1">
                    <mxGeometry x="150" y="165" width="30" height="30" as="geometry"/>
                </mxCell>
                <mxCell id="172" value="//" style="text;html=1;align=center;verticalAlign=middle;resizable=0;points=[];autosize=1;strokeColor=none;fillColor=none;" parent="1" vertex="1">
                    <mxGeometry x="150" y="125" width="30" height="30" as="geometry"/>
                </mxCell>
                <mxCell id="173" value="$$w_i$$" style="text;html=1;align=center;verticalAlign=middle;resizable=0;points=[];autosize=1;strokeColor=none;fillColor=none;" parent="1" vertex="1">
                    <mxGeometry x="130" y="145" width="70" height="30" as="geometry"/>
                </mxCell>
                <mxCell id="174" style="edgeStyle=orthogonalEdgeStyle;rounded=1;orthogonalLoop=1;jettySize=auto;html=1;entryX=0;entryY=0;entryDx=0;entryDy=0;curved=0;" parent="1" source="175" target="179" edge="1">
                    <mxGeometry relative="1" as="geometry"/>
                </mxCell>
                <mxCell id="175" value="&amp;nbsp;[7:0] scale0 [1]" style="shape=offPageConnector;whiteSpace=wrap;html=1;rotation=0;direction=north;labelPosition=center;verticalLabelPosition=middle;align=left;verticalAlign=middle;size=0.16666666666666666;" parent="1" vertex="1">
                    <mxGeometry x="35" y="45" width="110" height="20" as="geometry"/>
                </mxCell>
                <mxCell id="176" style="edgeStyle=orthogonalEdgeStyle;rounded=1;orthogonalLoop=1;jettySize=auto;html=1;entryX=0;entryY=1;entryDx=0;entryDy=0;curved=0;" parent="1" source="177" target="179" edge="1">
                    <mxGeometry relative="1" as="geometry"/>
                </mxCell>
                <mxCell id="177" value="&amp;nbsp;[7:0] scale1 [1]" style="shape=offPageConnector;whiteSpace=wrap;html=1;rotation=0;direction=north;labelPosition=center;verticalLabelPosition=middle;align=left;verticalAlign=middle;size=0.16666666666666666;" parent="1" vertex="1">
                    <mxGeometry x="35" y="85" width="110" height="20" as="geometry"/>
                </mxCell>
                <mxCell id="178" style="edgeStyle=orthogonalEdgeStyle;rounded=0;orthogonalLoop=1;jettySize=auto;html=1;entryX=0.5;entryY=1;entryDx=0;entryDy=0;" parent="1" source="179" target="180" edge="1">
                    <mxGeometry relative="1" as="geometry"/>
                </mxCell>
                <mxCell id="179" value="$$+$$" style="ellipse;whiteSpace=wrap;html=1;" parent="1" vertex="1">
                    <mxGeometry x="260" y="65" width="20" height="20" as="geometry"/>
                </mxCell>
                <mxCell id="180" value="[7:0] o_scale [1]&amp;nbsp;" style="shape=offPageConnector;whiteSpace=wrap;html=1;rotation=0;direction=south;labelPosition=center;verticalLabelPosition=middle;align=right;verticalAlign=middle;size=0.2;" parent="1" vertex="1">
                    <mxGeometry x="345" y="65" width="115" height="20" as="geometry"/>
                </mxCell>
            </root>
        </mxGraphModel>
    </diagram>
</mxfile>